<svg xmlns:osb="http://www.openswatchbook.org/uri/2009/osb" xmlns:dc="http://purl.org/dc/elements/1.1/" xmlns:cc="http://creativecommons.org/ns#" xmlns:rdf="http://www.w3.org/1999/02/22-rdf-syntax-ns#" xmlns:svg="http://www.w3.org/2000/svg" xmlns="http://www.w3.org/2000/svg" xmlns:sodipodi="http://sodipodi.sourceforge.net/DTD/sodipodi-0.dtd" xmlns:inkscape="http://www.inkscape.org/namespaces/inkscape" id="svg2" version="1.1" inkscape:version="0.48.0 r9654" x="0px"
   y="0px" viewBox="0 0 300 250" xml:space="preserve">
  <metadata id="metadata8">
    <rdf:RDF>
      <cc:Work rdf:about="">
        <dc:format>image/svg+xml</dc:format>
        <dc:type rdf:resource="http://purl.org/dc/dcmitype/StillImage"/>
        <dc:title/>
      </cc:Work>
    </rdf:RDF>
  </metadata>
  <defs id="defs6">
    <linearGradient id="linearGradient3779" osb:paint="solid">
      <stop style="stop-color:#000000;stop-opacity:1;" offset="0" id="stop3781"/>
    </linearGradient>
  </defs>
  <path style="fill:#455c91;stroke:#485c90;stroke-width:1px;stroke-linecap:butt;stroke-linejoin:miter;stroke-opacity:1;fill-opacity:1" d="m 148.3 12.3 0.5 40.5 C 139.2 73.5 120.2 105.3 106.4 117.1 l -1.7 -2.2 -94.6 -0.2 c -4.9 -0.2 -10.1 5.4 -9.8 9.2 L 9.6 245.2 c 0.3 4 4.5 9 9 9 l 84.3 0 c 3.3 0 7.8 -3.3 8 -7.3 l 0.4 -10.6 c 2.7 3.9 10.1 9.7 16.5 9.7 l 113.6 0 c 14.2 0 36.1 -15.1 28.9 -40.7 8.1 -6.5 13 -17.6 8.1 -31.6 8.5 -7 14.8 -20.1 7.6 -31.8 22.8 -19.1 8 -45.8 -9.6 -45.8 l -76.5 0 c 2.9 -12.5 7.4 -25.3 7.1 -42.1 -0.3 -14.5 -9.9 -35.7 -16.8 -47 -2.9 -4.7 -29.4 -13.8 -41.7 5.4 z" id="path3009" inkscape:connector-curvature="0"/>
  <path style="fill:#6e7fb3;fill-opacity:1;stroke:none" d="m 11.2 126.5 79.7 0 0.2 117.1 -70.9 0 z" id="path3764" inkscape:connector-curvature="0"/>
  <path style="fill:#6475ab;stroke:none;stroke-width:1px;stroke-linecap:butt;stroke-linejoin:miter;stroke-opacity:1;fill-opacity:1" d="m 19.7 142.3 63.1 0 0 94.2 -55.1 0 z" id="path2994" inkscape:connector-curvature="0"/>
  <path style="fill:#edf5f7;stroke:none;stroke-width:1px;stroke-linecap:butt;stroke-linejoin:miter;stroke-opacity:1;fill-opacity:1" d="m 186.8 107.1 c 3.6 -14.7 6.3 -31 8.1 -46.6 0.4 -3.8 0.4 -7.2 -0.2 -10.4 C 192.4 37.5 187.1 26.2 182.1 14.9 177.2 11 167.6 9.5 160.4 15.3 l 0 39.8 c -12.1 23.7 -25.7 46.5 -42.5 67.4 l -15.9 11.1 0 92.1 11 0 c 0 0 14.6 8.9 15.3 8.5 1.3 0.6 113.6 0.3 113.6 0.3 6.1 0.1 28 -15.9 14.1 -28.4 -1.9 -1.1 -1.6 -4.6 0.1 -5.7 8.7 -1.6 19.3 -18 8.3 -26.7 -1.9 -2.1 -0.5 -5.4 1.7 -5.6 6.5 -3.2 17.7 -13.7 7.6 -26.5 -2.1 -1 -2.1 -3.7 -0.2 -5.4 9.8 -1.4 22.3 -23.8 1.7 -29.2 z" id="path2987" inkscape:connector-curvature="0"/>
  <path style="fill:#dce4e7;fill-opacity:1;stroke:none" d="m 110.1 225.8 0 -97.8 -8.1 5.5 0 92.3 z" id="path3002" inkscape:connector-curvature="0"/>
  <path style="fill:#dce4e7;fill-opacity:1;stroke:none" d="m 171 11.4 9.4 40.7 -25 44.4 c -2.6 4.6 0.5 9.3 4.3 9.4 l 27.1 1.3 c 4.1 -18.7 9.1 -41.5 8.1 -55.6 -1.9 -9.8 -5.8 -22.2 -12.8 -36.8 -3.9 -2.7 -7.2 -3.3 -11.1 -3.3 z" id="path3000" inkscape:connector-curvature="0"/>
  <path style="fill:#dce4e7;fill-opacity:1;stroke:none" d="m 240.4 107 c 8.9 8.4 3.5 24.3 -4.3 30 -1.5 0.9 -1.8 3 -0.7 4.3 8.6 9.8 -2.8 26.4 -6.5 28.1 -1.2 1.1 -1.3 2.3 -1.1 3.6 9.8 13.7 -1.5 25.2 -5.4 27.8 -1.3 1.2 -1.7 3.1 -0.7 5 8.5 13.5 -1.4 23 -7 28.9 l 27.9 0.1 c 5.4 0.3 27.9 -16.1 13 -28.9 -1.7 -1.4 -0.6 -5.2 0.6 -5.4 7.4 -1.3 20.4 -16.9 8.2 -26.8 -0.9 -0.7 -1.6 -4.1 1.7 -5.6 10.1 -4.5 16.3 -15.2 7.7 -26.5 -2.3 -1.3 -2 -4.1 -0.2 -5.2 16.8 -5 17.2 -27.3 1.6 -29.3 z" id="path2985" inkscape:connector-curvature="0"/>
  <g id="g3779">
    <path transform="matrix(0.59806884,0,0,0.59806884,30.309966,82.598928)" d="m 80 237.5 a 13.8 13.8 0 1 1 -0 -0" id="path3780" style="fill:#ffffff;fill-opacity:1;stroke:none;stroke-width:0.80720121000000000;stroke-linecap:butt;stroke-linejoin:miter;stroke-miterlimit:4;stroke-opacity:1;stroke-dasharray:none;stroke-dashoffset:0"/>
    <path d="m69.4 223a1 1 0 1 1 -0 -0" id="path3782" style="fill:#000000;fill-opacity:1;stroke:none"/>
    <path style="fill:#000000;fill-opacity:1;stroke:none" id="path3790" d="m69.4 223a1 1 0 1 1 -0 -0"/>
    <path d="m69.4 223a1 1 0 1 1 -0 -0" id="path3792" style="fill:#000000;fill-opacity:1;stroke:none"/>
    <path style="fill:#000000;fill-opacity:1;stroke:none" id="path3794" d="m69.4 223a1 1 0 1 1 -0 -0"/>
  </g>
</svg>
