<?xml version="1.0" encoding="utf-8"?>
<!-- Generator: Adobe Illustrator 18.1.1, SVG Export Plug-In . SVG Version: 6.00 Build 0)  -->
<svg version="1.1" id="Isolation_Mode" xmlns="http://www.w3.org/2000/svg" xmlns:xlink="http://www.w3.org/1999/xlink" x="0px"
	 y="0px" viewBox="0 0 69.5 79.5" enable-background="new 0 0 69.5 79.5" xml:space="preserve">
<path fill="#E2A82F" d="M24.4,56.9c0,0-13.9,4-22.6-2.5c0,0,0.7-4.9,8.9-7c0,0-9-3.5-10.7-8.3c0,0,2.4-2.1,5.4-2c0,0-4-7.9-1.4-19.5
	c0,0,13.3,3.7,17.9,8.2c0,0-2.7-4.2,0.8-14.2c0,0,3.5-0.1,7.5,3.6c0,0,1.9-5.8,3.2-6.9c0,0,2.6,0.1,3.2,0.9c0,0,1.4-5.7,10.3-9.2
	c0,0,4.7,5.5,3.2,14.1l2.9,0.9c0,0-0.3,5.5-1.4,7.5c0,0,4.9,0.6,7.4,2.1c0,0-2.4,9.2-7.4,11.5c0,0,13,1.7,18,4.5
	c0,0-5.2,12.4-12.4,14.7c0,0,2.8,2.3,2.8,4.4c0,0-2.2,3.6-13.5,0.1c0,0,6.2,6.3,2.6,11.1c0,0-11.5,0.1-19.5-11.6
	c0,0-3.5,17-10.4,20.4c0,0-6-1.8-7.3-4.7C11.8,74.8,22.6,65.9,24.4,56.9"/>
</svg>
